<svg version="1.1" id="Layer_1" x="0" y="0" viewBox="0 0 325 435" xml:space="preserve" xmlns:xlink="http://www.w3.org/1999/xlink" xmlns="http://www.w3.org/2000/svg"><defs id="defs18"><linearGradient id="linearGradient882"><stop offset="0" id="stop878" stop-color="#000" stop-opacity="1"/><stop offset="1" id="stop880" stop-color="#000" stop-opacity="0"/></linearGradient><linearGradient xlink:href="#linearGradient882" id="linearGradient884" x1="3.2" y1="217.5" x2="321.9" y2="217.5" gradientUnits="userSpaceOnUse"/></defs><g id="g13" fill="#1c62cd" fill-opacity="1"><path d="M226.8 197.6l-49.1 39.7h144.2v43.9h-187c-12.5 9.4-19.9 20.9-19.9 35.5 0 25.1 19.9 38.7 55.4 38.7 30.3 0 56.4-14.6 77.3-44.9l57.5 38.7c-31.3 48.1-87.8 72.1-141.1 72.1-70 0-122.2-33.4-122.2-88.8 0-17.8 6.3-36.6 18.8-51.2H3.2v-43.9h91.9l50.2-39.7H3.2v-43.9h186c13.6-12.5 19.9-24 19.9-37.6 0-21.9-19.9-37.6-50.2-37.6-29.3 0-54.3 16.7-72.1 44.9L31.4 85.8c30.3-48.1 79.4-72.1 132.7-72.1 72.1 0 119.1 37.6 119.1 88.8 0 18.8-6.3 37.6-16.7 51.2h55.4v43.9h-95.1z" id="path11" fill="#1c62cd" fill-opacity="1"/></g></svg>