<?xml version="1.0" encoding="UTF-8" standalone="no"?>
<!-- Generator: Adobe Illustrator 25.2.3, SVG Export Plug-In . SVG Version: 6.00 Build 0)  -->

<svg
   version="1.1"
   id="Layer_1"
   x="0px"
   y="0px"
   viewBox="0 0 325 435"
   style="enable-background:new 0 0 325 435;"
   xml:space="preserve"
   sodipodi:docname="hrivna-s.svg"
   inkscape:version="1.2.1 (9c6d41e410, 2022-07-14)"
   xmlns:inkscape="http://www.inkscape.org/namespaces/inkscape"
   xmlns:sodipodi="http://sodipodi.sourceforge.net/DTD/sodipodi-0.dtd"
   xmlns="http://www.w3.org/2000/svg"
   xmlns:svg="http://www.w3.org/2000/svg"><defs
   id="defs18" /><sodipodi:namedview
   id="namedview16"
   pagecolor="#ffffff"
   bordercolor="#000000"
   borderopacity="0.25"
   inkscape:showpageshadow="2"
   inkscape:pageopacity="0.0"
   inkscape:pagecheckerboard="0"
   inkscape:deskcolor="#d1d1d1"
   showgrid="false"
   inkscape:zoom="1.9471264"
   inkscape:cx="162.54723"
   inkscape:cy="217.24321"
   inkscape:window-width="1920"
   inkscape:window-height="1027"
   inkscape:window-x="-8"
   inkscape:window-y="22"
   inkscape:window-maximized="1"
   inkscape:current-layer="g13" />
<g
   id="g13">
	<path
   d="M226.8,197.6l-49.1,39.7h144.2v43.9h-187c-12.5,9.4-19.9,20.9-19.9,35.5c0,25.1,19.9,38.7,55.4,38.7   c30.3,0,56.4-14.6,77.3-44.9l57.5,38.7c-31.3,48.1-87.8,72.1-141.1,72.1c-70,0-122.2-33.4-122.2-88.8c0-17.8,6.3-36.6,18.8-51.2   H3.2v-43.9h91.9l50.2-39.7H3.2v-43.9h186c13.6-12.5,19.9-24,19.9-37.6c0-21.9-19.9-37.6-50.2-37.6c-29.3,0-54.3,16.7-72.1,44.9   L31.4,85.8c30.3-48.1,79.4-72.1,132.7-72.1c72.1,0,119.1,37.6,119.1,88.8c0,18.8-6.3,37.6-16.7,51.2h55.4v43.9H226.8z"
   id="path11"
   style="fill:#c4c4c4;fill-opacity:1" />
</g>
</svg>
